<svg width="99" height="55" viewBox="0 0 99 55" fill="none" xmlns="http://www.w3.org/2000/svg">
<path d="M97.8916 42.7121L63.6536 54.6044C62.2852 55.0825 61.0649 53.587 61.8075 52.3411L65.7493 45.6878H4.67492C1.05298 45.6878 -1.18518 41.7457 0.661416 38.6327L22.5335 1.81591C23.2049 0.691777 24.416 0 25.728 0H81.9504C83.7611 0 84.8799 1.96851 83.9594 3.52501L70.0677 26.9081C69.2287 28.3272 67.6973 29.1919 66.0496 29.1919H53.8774C52.6617 29.1919 51.9139 27.8593 52.55 26.8216L64.4014 7.50783C65.3731 5.9259 64.2338 3.90142 62.3872 3.90142C61.97 3.90142 61.5682 4.00824 61.2171 4.2117C60.866 4.41007 60.5611 4.70001 60.3525 5.06116L47.1629 26.9335C46.3188 28.3374 44.8028 29.1971 43.1648 29.1971H31.522C30.3109 29.1971 29.5631 27.8745 30.1889 26.8369L41.8676 7.48236C42.804 5.90043 41.6641 3.9065 39.8283 3.9065H39.6858C38.8515 3.9065 38.0786 4.34395 37.6511 5.06625L21.3486 32.4982C20.733 33.5359 21.4808 34.8482 22.6862 34.8482H72.1736L75.2462 29.6599C75.6833 28.9223 76.6397 28.6782 77.3772 29.1157L98.0239 41.3133C98.5933 41.6541 98.5123 42.4985 97.8814 42.7172L97.8916 42.7121Z" fill="#2FBFC9"/>
</svg>
